<svg xmlns="http://www.w3.org/2000/svg" xmlns:xlink="http://www.w3.org/1999/xlink" preserveAspectRatio="xMidYMid" width="39" height="39" viewBox="0 0 39 39">
  <defs>
    <style>

      .cls-2 {
        fill: #fed136;
      }
    </style>
  </defs>
  <path d="M35.110,16.050 C35.110,16.050 3.447,16.050 3.447,16.050 C1.546,16.050 0.005,14.508 0.005,12.608 C0.005,10.707 1.546,9.167 3.447,9.167 C3.447,9.167 7.341,9.167 7.341,9.167 C7.402,8.946 7.482,8.728 7.601,8.521 C7.601,8.521 11.731,1.367 11.731,1.367 C12.492,0.050 14.175,-0.401 15.492,0.360 C16.809,1.120 17.260,2.804 16.500,4.121 C16.500,4.121 13.587,9.167 13.587,9.167 C13.587,9.167 24.969,9.167 24.969,9.167 C24.969,9.167 22.056,4.121 22.056,4.121 C21.296,2.804 21.747,1.120 23.064,0.360 C24.381,-0.401 26.065,0.050 26.825,1.367 C26.825,1.367 30.955,8.521 30.955,8.521 C31.075,8.728 31.154,8.946 31.215,9.167 C31.215,9.167 35.110,9.167 35.110,9.167 C37.011,9.167 38.552,10.707 38.552,12.608 C38.552,14.508 37.011,16.050 35.110,16.050 ZM34.527,38.076 C34.527,38.076 4.029,38.076 4.029,38.076 C4.029,38.076 2.838,17.426 2.838,17.426 C2.838,17.426 35.719,17.426 35.719,17.426 C35.719,17.426 34.527,38.076 34.527,38.076 ZM12.395,24.309 C12.395,23.549 11.778,22.933 11.018,22.933 C10.258,22.933 9.642,23.549 9.642,24.309 C9.642,24.309 9.642,32.570 9.642,32.570 C9.642,33.330 10.258,33.946 11.018,33.946 C11.778,33.946 12.395,33.330 12.395,32.570 C12.395,32.570 12.395,24.309 12.395,24.309 ZM20.655,24.309 C20.655,23.549 20.039,22.933 19.278,22.933 C18.518,22.933 17.902,23.549 17.902,24.309 C17.902,24.309 17.902,32.570 17.902,32.570 C17.902,33.330 18.518,33.946 19.278,33.946 C20.039,33.946 20.655,33.330 20.655,32.570 C20.655,32.570 20.655,24.309 20.655,24.309 ZM28.915,24.309 C28.915,23.549 28.298,22.933 27.538,22.933 C26.778,22.933 26.161,23.549 26.161,24.309 C26.161,24.309 26.161,32.570 26.161,32.570 C26.161,33.330 26.778,33.946 27.538,33.946 C28.298,33.946 28.915,33.330 28.915,32.570 C28.915,32.570 28.915,24.309 28.915,24.309 Z" id="path-1" class="cls-2" fill-rule="evenodd"/>
</svg>
