<svg xmlns="http://www.w3.org/2000/svg" xmlns:xlink="http://www.w3.org/1999/xlink" preserveAspectRatio="xMidYMid" width="40" height="34" viewBox="0 0 40 34">
  <defs>
    <style>

      .cls-2 {
        fill: #fed136;
      }
    </style>
  </defs>
  <path d="M36.329,33.628 C36.329,33.628 4.041,33.628 4.041,33.628 C2.555,33.628 0.005,32.423 0.005,30.937 C0.005,29.451 1.209,28.246 2.695,28.246 C2.695,28.246 37.675,28.246 37.675,28.246 C39.161,28.246 40.366,29.451 40.366,30.937 C40.366,32.423 37.815,33.628 36.329,33.628 ZM24.221,30.937 C24.221,30.937 16.149,30.937 16.149,30.937 C15.406,30.937 14.804,31.238 14.804,31.609 C14.804,31.981 15.406,32.282 16.149,32.282 C16.149,32.282 24.221,32.282 24.221,32.282 C24.964,32.282 25.567,31.981 25.567,31.609 C25.567,31.238 24.964,30.937 24.221,30.937 ZM14.940,13.875 C14.940,13.875 17.423,16.369 17.423,16.369 C17.423,16.369 25.425,8.331 25.425,8.331 C25.948,7.805 26.796,7.805 27.319,8.331 C27.319,8.331 29.214,10.233 29.214,10.233 C29.737,10.758 29.737,11.611 29.214,12.136 C29.214,12.136 18.796,22.600 18.796,22.600 C18.347,23.051 17.670,23.091 17.153,22.768 C16.713,22.878 16.231,22.782 15.887,22.437 C15.887,22.437 11.152,17.680 11.152,17.680 C10.629,17.155 10.629,16.303 11.152,15.778 C11.152,15.778 13.046,13.875 13.046,13.875 C13.569,13.349 14.417,13.349 14.940,13.875 ZM33.639,4.030 C33.639,4.030 6.731,4.030 6.731,4.030 C6.731,4.030 6.731,25.556 6.731,25.556 C6.731,25.556 2.695,25.556 2.695,25.556 C2.695,25.556 2.695,22.865 2.695,22.865 C2.695,22.865 2.943,22.865 2.943,22.865 C2.792,22.442 2.695,21.994 2.695,21.519 C2.695,21.519 2.695,4.030 2.695,4.030 C2.695,1.801 4.502,-0.006 6.731,-0.006 C6.731,-0.006 33.639,-0.006 33.639,-0.006 C35.868,-0.006 37.675,1.801 37.675,4.030 C37.675,4.030 37.675,21.519 37.675,21.519 C37.675,21.994 37.578,22.442 37.428,22.865 C37.428,22.865 37.675,22.865 37.675,22.865 C37.675,22.865 37.675,25.556 37.675,25.556 C37.675,25.556 33.639,25.556 33.639,25.556 C33.639,25.556 33.639,4.030 33.639,4.030 Z" id="path-1" class="cls-2" fill-rule="evenodd"/>
</svg>
