<svg xmlns="http://www.w3.org/2000/svg" xmlns:xlink="http://www.w3.org/1999/xlink" preserveAspectRatio="xMidYMid" width="28" height="37" viewBox="0 0 28 37">
  <defs>
    <style>

      .cls-2 {
        fill: #fed136;
      }
    </style>
  </defs>
  <path d="M24.497,37.340 C24.497,37.340 3.498,37.340 3.498,37.340 C1.565,37.340 -0.002,35.773 -0.002,33.840 C-0.002,33.840 -0.002,21.007 -0.002,21.007 C-0.002,19.074 1.565,17.507 3.498,17.507 C3.498,17.507 4.664,17.507 4.664,17.507 C4.664,17.507 4.664,8.174 4.664,8.174 C4.664,3.664 8.843,0.008 13.997,0.008 C19.152,0.008 23.330,3.664 23.330,8.174 C23.330,8.174 23.330,17.507 23.330,17.507 C23.330,17.507 24.497,17.507 24.497,17.507 C26.430,17.507 27.997,19.074 27.997,21.007 C27.997,21.007 27.997,33.840 27.997,33.840 C27.997,35.773 26.430,37.340 24.497,37.340 ZM18.664,8.174 C18.664,6.242 16.575,4.674 13.997,4.674 C11.420,4.674 9.331,6.242 9.331,8.174 C9.331,8.174 9.331,16.340 9.331,16.340 C9.331,16.752 9.443,17.141 9.617,17.507 C9.617,17.507 18.378,17.507 18.378,17.507 C18.552,17.141 18.664,16.752 18.664,16.340 C18.664,16.340 18.664,8.174 18.664,8.174 ZM13.997,21.007 C11.420,21.007 9.331,23.097 9.331,25.673 C9.331,27.396 10.275,28.884 11.664,29.693 C11.664,29.693 11.664,31.506 11.664,31.506 C11.664,32.796 12.709,33.840 13.997,33.840 C15.286,33.840 16.331,32.796 16.331,31.506 C16.331,31.506 16.331,29.693 16.331,29.693 C17.720,28.884 18.664,27.396 18.664,25.673 C18.664,23.097 16.575,21.007 13.997,21.007 Z" id="path-1" class="cls-2" fill-rule="evenodd"/>
</svg>
